<svg width="90" height="90" viewBox="0 0 90 90" fill="none" xmlns="http://www.w3.org/2000/svg">
<path d="M67.5 0H22.5C16.5326 0 10.8097 2.37053 6.5901 6.5901C2.37053 10.8097 0 16.5326 0 22.5L0 67.5C0 73.4674 2.37053 79.1903 6.5901 83.4099C10.8097 87.6295 16.5326 90 22.5 90H67.5C73.4674 90 79.1903 87.6295 83.4099 83.4099C87.6295 79.1903 90 73.4674 90 67.5V22.5C90 16.5326 87.6295 10.8097 83.4099 6.5901C79.1903 2.37053 73.4674 0 67.5 0V0ZM69.588 28.0485L62.1225 63.225C61.569 65.718 60.084 66.3255 58.014 65.151L46.6425 56.772L41.157 62.055C40.5495 62.658 40.041 63.171 38.8665 63.171L39.672 51.6015L60.75 32.562C61.65 31.7565 60.543 31.302 59.337 32.112L33.3 48.501L22.05 45C19.6155 44.226 19.5615 42.561 22.5675 41.4L66.429 24.48C68.463 23.742 70.2405 24.975 69.579 28.053L69.588 28.0485Z" fill="white"/>
</svg>
